<svg width="230" height="34" viewBox="0 0 230 34" fill="none" xmlns="http://www.w3.org/2000/svg">
<path d="M11.616 32.561C9.57 32.561 7.865 32.242 6.501 31.604C5.137 30.944 4.114 30.053 3.432 28.931C2.75 27.787 2.409 26.5 2.409 25.07H4.191C4.191 26.17 4.444 27.16 4.95 28.04C5.478 28.92 6.292 29.624 7.392 30.152C8.492 30.658 9.9 30.911 11.616 30.911C13.222 30.911 14.564 30.68 15.642 30.218C16.72 29.756 17.523 29.129 18.051 28.337C18.601 27.523 18.876 26.588 18.876 25.532C18.876 24.234 18.392 23.134 17.424 22.232C16.456 21.308 14.982 20.747 13.002 20.549L10.131 20.318C8.129 20.142 6.545 19.504 5.379 18.404C4.213 17.304 3.63 15.863 3.63 14.081C3.63 12.805 3.927 11.661 4.521 10.649C5.115 9.615 6.006 8.801 7.194 8.207C8.382 7.591 9.845 7.283 11.583 7.283C13.343 7.283 14.828 7.613 16.038 8.273C17.248 8.911 18.161 9.78 18.777 10.88C19.415 11.958 19.734 13.179 19.734 14.543H17.952C17.952 13.553 17.732 12.64 17.292 11.804C16.852 10.946 16.159 10.253 15.213 9.725C14.289 9.197 13.079 8.933 11.583 8.933C10.131 8.933 8.954 9.175 8.052 9.659C7.15 10.121 6.479 10.748 6.039 11.54C5.621 12.31 5.412 13.157 5.412 14.081C5.412 15.401 5.83 16.457 6.666 17.249C7.524 18.041 8.745 18.514 10.329 18.668L13.2 18.899C14.806 19.031 16.159 19.405 17.259 20.021C18.381 20.615 19.228 21.385 19.8 22.331C20.372 23.277 20.658 24.344 20.658 25.532C20.658 26.874 20.306 28.084 19.602 29.162C18.898 30.218 17.875 31.054 16.533 31.67C15.191 32.264 13.552 32.561 11.616 32.561ZM40.1974 32V26.819H39.8674V20.45C39.8674 19.064 39.5044 17.997 38.7784 17.249C38.0524 16.479 36.8534 16.094 35.1814 16.094C34.5874 16.094 33.9824 16.116 33.3664 16.16C32.7504 16.182 32.1674 16.215 31.6174 16.259C31.0674 16.281 30.5724 16.325 30.1324 16.391V14.807C30.5724 14.741 31.0344 14.686 31.5184 14.642C32.0244 14.598 32.5304 14.565 33.0364 14.543C33.5424 14.521 34.0264 14.51 34.4884 14.51C36.2264 14.51 37.6124 14.741 38.6464 15.203C39.6804 15.643 40.4284 16.325 40.8904 17.249C41.3524 18.151 41.5834 19.306 41.5834 20.714V32H40.1974ZM34.1584 32.462C32.9924 32.462 31.9474 32.253 31.0234 31.835C30.0994 31.417 29.3624 30.801 28.8124 29.987C28.2844 29.173 28.0204 28.183 28.0204 27.017C28.0204 25.895 28.2734 24.938 28.7794 24.146C29.3074 23.354 30.0554 22.749 31.0234 22.331C32.0134 21.913 33.2014 21.704 34.5874 21.704H40.0324V23.123H34.4224C32.9264 23.123 31.7714 23.486 30.9574 24.212C30.1654 24.916 29.7694 25.851 29.7694 27.017C29.7694 28.249 30.1984 29.228 31.0564 29.954C31.9144 30.658 33.0364 31.01 34.4224 31.01C35.2804 31.01 36.1164 30.845 36.9304 30.515C37.7444 30.185 38.4264 29.635 38.9764 28.865C39.5264 28.073 39.8234 27.017 39.8674 25.697L40.5274 26.456C40.4614 27.798 40.1314 28.92 39.5374 29.822C38.9654 30.702 38.2174 31.362 37.2934 31.802C36.3694 32.242 35.3244 32.462 34.1584 32.462ZM51.1046 32V14.675H52.4906V22.001H52.2266C52.2266 19.493 52.7876 17.623 53.9096 16.391C55.0316 15.159 56.8466 14.543 59.3546 14.543H59.9486V16.127H59.0246C56.9786 16.127 55.4386 16.655 54.4046 17.711C53.3706 18.745 52.8536 20.274 52.8536 22.298V32H51.1046ZM77.7194 32V26.819H77.3894V20.45C77.3894 19.064 77.0264 17.997 76.3004 17.249C75.5744 16.479 74.3754 16.094 72.7034 16.094C72.1094 16.094 71.5044 16.116 70.8884 16.16C70.2724 16.182 69.6894 16.215 69.1394 16.259C68.5894 16.281 68.0944 16.325 67.6544 16.391V14.807C68.0944 14.741 68.5564 14.686 69.0404 14.642C69.5464 14.598 70.0524 14.565 70.5584 14.543C71.0644 14.521 71.5484 14.51 72.0104 14.51C73.7484 14.51 75.1344 14.741 76.1684 15.203C77.2024 15.643 77.9504 16.325 78.4124 17.249C78.8744 18.151 79.1054 19.306 79.1054 20.714V32H77.7194ZM71.6804 32.462C70.5144 32.462 69.4694 32.253 68.5454 31.835C67.6214 31.417 66.8844 30.801 66.3344 29.987C65.8064 29.173 65.5424 28.183 65.5424 27.017C65.5424 25.895 65.7954 24.938 66.3014 24.146C66.8294 23.354 67.5774 22.749 68.5454 22.331C69.5354 21.913 70.7234 21.704 72.1094 21.704H77.5544V23.123H71.9444C70.4484 23.123 69.2934 23.486 68.4794 24.212C67.6874 24.916 67.2914 25.851 67.2914 27.017C67.2914 28.249 67.7204 29.228 68.5784 29.954C69.4364 30.658 70.5584 31.01 71.9444 31.01C72.8024 31.01 73.6384 30.845 74.4524 30.515C75.2664 30.185 75.9484 29.635 76.4984 28.865C77.0484 28.073 77.3454 27.017 77.3894 25.697L78.0494 26.456C77.9834 27.798 77.6534 28.92 77.0594 29.822C76.4874 30.702 75.7394 31.362 74.8154 31.802C73.8914 32.242 72.8464 32.462 71.6804 32.462ZM88.6267 32V7.91H90.3757V20.78L89.7487 21.902C89.7487 20.384 89.9797 19.053 90.4417 17.909C90.9257 16.743 91.6517 15.841 92.6197 15.203C93.5877 14.543 94.8087 14.213 96.2827 14.213H96.3487C98.5047 14.213 100.133 14.895 101.233 16.259C102.333 17.601 102.883 19.438 102.883 21.77V32H101.101V21.374C101.101 19.702 100.65 18.36 99.7477 17.348C98.8457 16.336 97.5697 15.83 95.9197 15.83C94.2257 15.83 92.8727 16.369 91.8607 17.447C90.8707 18.503 90.3757 19.889 90.3757 21.605V32H88.6267ZM136.871 32.165V28.403H142.91C144.01 28.403 144.846 28.106 145.418 27.512C145.99 26.896 146.276 26.06 146.276 25.004C146.276 23.948 145.99 23.134 145.418 22.562C144.846 21.968 144.01 21.671 142.91 21.671H136.871V18.8H142.58C144.186 18.8 145.616 18.998 146.87 19.394C148.146 19.768 149.136 20.406 149.84 21.308C150.566 22.21 150.929 23.42 150.929 24.938V25.4C150.929 26.83 150.61 28.051 149.972 29.063C149.356 30.053 148.421 30.823 147.167 31.373C145.935 31.901 144.406 32.165 142.58 32.165H136.871ZM132.944 32.165V7.745H137.531V32.165H132.944ZM136.871 20.912V18.041H142.019C143.141 18.041 143.966 17.744 144.494 17.15C145.022 16.556 145.286 15.764 145.286 14.774C145.286 13.784 145.022 12.992 144.494 12.398C143.966 11.804 143.141 11.507 142.019 11.507H136.871V7.745H141.59C144.318 7.745 146.386 8.317 147.794 9.461C149.224 10.605 149.939 12.244 149.939 14.378V14.84C149.939 16.336 149.576 17.535 148.85 18.437C148.146 19.317 147.167 19.955 145.913 20.351C144.659 20.725 143.218 20.912 141.59 20.912H136.871ZM166.128 32.627C164.588 32.627 163.235 32.363 162.069 31.835C160.925 31.307 159.968 30.603 159.198 29.723C158.45 28.821 157.878 27.82 157.482 26.72C157.108 25.62 156.921 24.498 156.921 23.354V22.727C156.921 21.539 157.108 20.395 157.482 19.295C157.878 18.173 158.45 17.183 159.198 16.325C159.968 15.445 160.914 14.752 162.036 14.246C163.158 13.718 164.456 13.454 165.93 13.454C167.866 13.454 169.483 13.883 170.781 14.741C172.101 15.577 173.091 16.688 173.751 18.074C174.411 19.438 174.741 20.912 174.741 22.496V24.146H158.868V21.341H171.87L170.451 22.727C170.451 21.583 170.286 20.604 169.956 19.79C169.626 18.976 169.12 18.349 168.438 17.909C167.778 17.469 166.942 17.249 165.93 17.249C164.918 17.249 164.06 17.48 163.356 17.942C162.652 18.404 162.113 19.075 161.739 19.955C161.387 20.813 161.211 21.847 161.211 23.057C161.211 24.179 161.387 25.18 161.739 26.06C162.091 26.918 162.63 27.6 163.356 28.106C164.082 28.59 165.006 28.832 166.128 28.832C167.25 28.832 168.163 28.612 168.867 28.172C169.571 27.71 170.022 27.149 170.22 26.489H174.444C174.18 27.721 173.674 28.799 172.926 29.723C172.178 30.647 171.221 31.362 170.055 31.868C168.911 32.374 167.602 32.627 166.128 32.627ZM181.543 32V14.081H185.173V21.77H184.843C184.843 19.944 185.085 18.426 185.569 17.216C186.053 15.984 186.768 15.06 187.714 14.444C188.682 13.828 189.881 13.52 191.311 13.52H191.509C193.643 13.52 195.26 14.213 196.36 15.599C197.46 16.963 198.01 19.009 198.01 21.737V32H193.423V21.341C193.423 20.241 193.104 19.35 192.466 18.668C191.85 17.986 190.992 17.645 189.892 17.645C188.77 17.645 187.857 17.997 187.153 18.701C186.471 19.383 186.13 20.307 186.13 21.473V32H181.543ZM218.451 32L212.445 23.618H209.772L217.395 14.081H222.18L215.151 22.892L215.25 20.582L223.632 32H218.451ZM205.911 32V7.91H210.498V32H205.911Z" fill="white"/>
<ellipse cx="227.674" cy="30" rx="1.67407" ry="2" fill="#FF9400"/>
</svg>
